<?xml version="1.0" encoding="UTF-8"?>
<svg width="213px" height="214px" viewBox="0 0 213 214" version="1.1" xmlns="http://www.w3.org/2000/svg" xmlns:xlink="http://www.w3.org/1999/xlink">
    <!-- Generator: Sketch 52.6 (67491) - http://www.bohemiancoding.com/sketch -->
    <title>Group</title>
    <desc>Created with Sketch.</desc>
    <g id="Page-1" stroke="none" stroke-width="1" fill="none" fill-rule="evenodd">
        <g id="Group" transform="translate(0.000000, -8.000000)">
            <path d="M111.066244,32.0402425 C146.741077,32.0048687 182.398389,49.712056 218.038179,85.1618045 L3.98917861,85.3740475 C27.2792072,70.5422344 44.1343149,60.2097008 54.5545016,54.3764465 C74.6187531,43.1444136 91.0130646,32.0601265 111.066244,32.0402425 Z" id="Triangle" fill="#A78BFA" transform="translate(111.013679, 58.707119) scale(-1, -1) rotate(-13.000000) translate(-111.013679, -58.707119) "></path>
            <path d="M159.07598,84.3654378 C194.893223,84.4057848 230.730451,102.118153 266.587665,137.502543 L51.6842043,137.260462 C75.0358412,122.536927 91.936385,112.28116 102.385836,106.493161 C122.506436,95.3482678 138.942751,84.3427584 159.07598,84.3654378 Z" id="Triangle" fill="#7E5AEB" transform="translate(159.135934, 110.933973) scale(-1, 1) rotate(75.000000) translate(-159.135934, -110.933973) "></path>
            <path d="M65.8093975,144.71125 C57.206265,144.71125 48.6031325,147.242451 40,152.304853 C45.0395983,143.662792 47.5593975,135.020732 47.5593975,126.378671 C47.5593975,117.73661 45.0395983,109.094549 40,100.452489 C48.6031325,105.514891 57.206265,108.046092 65.8093975,108.046092 C74.41253,108.046092 83.0156625,105.514891 91.618795,100.452489 C86.5791967,109.094549 84.0593975,117.73661 84.0593975,126.378671 C84.0593975,135.020732 86.5791967,143.662792 91.618795,152.304853 C83.0156625,147.242451 74.41253,144.71125 65.8093975,144.71125 Z" id="Star" fill="#7E5AEB"></path>
            <path d="M91.8093975,189.427393 C87.206265,189.427393 82.6031325,190.78172 78,193.490373 C80.6964526,188.866412 82.0446789,184.242451 82.0446789,179.61849 C82.0446789,174.994529 80.6964526,170.370567 78,165.746606 C82.6031325,168.45526 87.206265,169.809587 91.8093975,169.809587 C96.41253,169.809587 101.015663,168.45526 105.618795,165.746606 C102.922342,170.370567 101.574116,174.994529 101.574116,179.61849 C101.574116,184.242451 102.922342,188.866412 105.618795,193.490373 C101.015663,190.78172 96.41253,189.427393 91.8093975,189.427393 Z" id="Star" fill="#7E5AEB"></path>
            <path d="M36.8093975,195.454542 C32.206265,195.454542 27.6031325,196.808869 23,199.517523 C25.6964526,194.893561 27.0446789,190.2696 27.0446789,185.645639 C27.0446789,181.021678 25.6964526,176.397717 23,171.773756 C27.6031325,174.482409 32.206265,175.836736 36.8093975,175.836736 C41.41253,175.836736 46.0156625,174.482409 50.618795,171.773756 C47.9223424,176.397717 46.5741161,181.021678 46.5741161,185.645639 C46.5741161,190.2696 47.9223424,194.893561 50.618795,199.517523 C46.0156625,196.808869 41.41253,195.454542 36.8093975,195.454542 Z" id="Star" fill="#7E5AEB"></path>
            <path d="M18.8093975,133.346348 C15.5395983,133.346348 12.2697992,134.308384 9,136.232455 C10.915404,132.94786 11.873106,129.663265 11.873106,126.378671 C11.873106,123.094076 10.915404,119.809482 9,116.524887 C12.2697992,118.448958 15.5395983,119.410993 18.8093975,119.410993 C22.0791967,119.410993 25.3489959,118.448958 28.618795,116.524887 C26.703391,119.809482 25.745689,123.094076 25.745689,126.378671 C25.745689,129.663265 26.703391,132.94786 28.618795,136.232455 C25.3489959,134.308384 22.0791967,133.346348 18.8093975,133.346348 Z" id="Star" fill="#7E5AEB"></path>
        </g>
    </g>
</svg>